<svg width="18" height="18" viewBox="0 0 18 18" fill="none" xmlns="http://www.w3.org/2000/svg">
<g id="icons / Miles&#38;GO / 16 / Manage Miles">
<path id="Manage Miles" fill-rule="evenodd" clip-rule="evenodd" d="M4.51008 13.8799C2.41632 12.7074 0.995117 10.4517 0.995117 7.86607C0.995117 4.07735 4.04501 0.995117 7.79362 0.995117C10.1754 0.995117 12.2736 2.24019 13.4881 4.11932C15.6603 5.33123 17.0051 7.61856 17.0051 10.1342C17.0051 13.9227 13.9554 17.0051 10.2066 17.0051C7.88841 17.0051 5.77166 15.8384 4.51008 13.8799ZM2.10469 7.86607C2.10469 4.69572 4.6567 2.11651 7.79362 2.11651C9.80765 2.11651 11.5792 3.18072 12.5905 4.78079C12.6099 4.821 12.6331 4.85929 12.6618 4.89405C13.1825 5.76185 13.4825 6.77911 13.4825 7.86607C13.4825 11.0364 10.9305 13.6155 7.79362 13.6155C4.6567 13.6155 2.10469 11.0364 2.10469 7.86607ZM14.5921 7.86607C14.5921 7.30793 14.5243 6.76566 14.3995 6.24581C15.3477 7.28871 15.8955 8.66514 15.8955 10.1342C15.8955 13.3045 13.3435 15.8837 10.2066 15.8837C8.8959 15.8837 7.66253 15.4364 6.6739 14.6422C7.03832 14.7034 7.41208 14.7369 7.79362 14.7369C11.5424 14.7369 14.5921 11.6546 14.5921 7.86607ZM5.0907 10.491C5.0907 10.7986 5.33613 11.0479 5.6389 11.0479C5.94166 11.0479 6.18709 10.7986 6.18709 10.491V7.15698L7.4467 8.65451C7.55963 8.78897 7.72189 8.85278 7.88322 8.84689C8.04439 8.85278 8.20666 8.78897 8.31974 8.65451L9.57919 7.15698V10.491C9.57919 10.7986 9.82462 11.0479 10.1274 11.0479C10.4301 11.0479 10.6756 10.7986 10.6756 10.491V5.64768C10.6756 5.41456 10.5326 5.20594 10.3172 5.12527C10.1014 5.04427 9.85971 5.10872 9.7106 5.28598L7.88322 7.45884L6.05568 5.28598C5.90657 5.10872 5.6649 5.04427 5.44906 5.12527C5.2337 5.20594 5.0907 5.41456 5.0907 5.64768V10.491Z" fill="white"/>
<mask id="mask0_1845_141762" style="mask-type:luminance" maskUnits="userSpaceOnUse" x="0" y="0" width="18" height="18">
<path id="Manage Miles_2" fill-rule="evenodd" clip-rule="evenodd" d="M4.51008 13.8799C2.41632 12.7074 0.995117 10.4517 0.995117 7.86607C0.995117 4.07735 4.04501 0.995117 7.79362 0.995117C10.1754 0.995117 12.2736 2.24019 13.4881 4.11932C15.6603 5.33123 17.0051 7.61856 17.0051 10.1342C17.0051 13.9227 13.9554 17.0051 10.2066 17.0051C7.88841 17.0051 5.77166 15.8384 4.51008 13.8799ZM2.10469 7.86607C2.10469 4.69572 4.6567 2.11651 7.79362 2.11651C9.80765 2.11651 11.5792 3.18072 12.5905 4.78079C12.6099 4.821 12.6331 4.85929 12.6618 4.89405C13.1825 5.76185 13.4825 6.77911 13.4825 7.86607C13.4825 11.0364 10.9305 13.6155 7.79362 13.6155C4.6567 13.6155 2.10469 11.0364 2.10469 7.86607ZM14.5921 7.86607C14.5921 7.30793 14.5243 6.76566 14.3995 6.24581C15.3477 7.28871 15.8955 8.66514 15.8955 10.1342C15.8955 13.3045 13.3435 15.8837 10.2066 15.8837C8.8959 15.8837 7.66253 15.4364 6.6739 14.6422C7.03832 14.7034 7.41208 14.7369 7.79362 14.7369C11.5424 14.7369 14.5921 11.6546 14.5921 7.86607ZM5.0907 10.491C5.0907 10.7986 5.33613 11.0479 5.6389 11.0479C5.94166 11.0479 6.18709 10.7986 6.18709 10.491V7.15698L7.4467 8.65451C7.55963 8.78897 7.72189 8.85278 7.88322 8.84689C8.04439 8.85278 8.20666 8.78897 8.31974 8.65451L9.57919 7.15698V10.491C9.57919 10.7986 9.82462 11.0479 10.1274 11.0479C10.4301 11.0479 10.6756 10.7986 10.6756 10.491V5.64768C10.6756 5.41456 10.5326 5.20594 10.3172 5.12527C10.1014 5.04427 9.85971 5.10872 9.7106 5.28598L7.88322 7.45884L6.05568 5.28598C5.90657 5.10872 5.6649 5.04427 5.44906 5.12527C5.2337 5.20594 5.0907 5.41456 5.0907 5.64768V10.491Z" fill="white"/>
</mask>
<g mask="url(#mask0_1845_141762)">
</g>
</g>
</svg>
