<svg width="17" height="17" viewBox="0 0 17 17" fill="none" xmlns="http://www.w3.org/2000/svg">
<g id="icons / navega&#195;&#167;&#195;&#163;o / 16 / Edit">
<path id="Fill 45" fill-rule="evenodd" clip-rule="evenodd" d="M13.104 1.14568L16.7946 4.8375C17.0036 5.04636 17.0036 5.38533 16.7946 5.59418L6.1711 16.2212C6.08811 16.3042 5.9802 16.3577 5.86403 16.3732L1.60132 16.9455C1.57748 16.9488 1.55378 16.9504 1.53009 16.9504C1.38917 16.9504 1.25283 16.8945 1.1518 16.7935C1.0338 16.6756 0.977709 16.5094 0.999872 16.344L1.57182 12.0799C1.58756 11.9635 1.64091 11.8556 1.72375 11.7727L12.3474 1.14568C12.5481 0.944929 12.9033 0.944929 13.104 1.14568ZM2.15355 15.7916L5.54245 15.3365L15.6598 5.21592L12.7257 2.28078L2.60827 12.4017L2.15355 15.7916Z" fill="#4A4A4A"/>
<path id="Vector 31" d="M9 5.66699L12.3333 9.00033" stroke="#4A4A4A" stroke-width="1.2"/>
<mask id="mask0_0_15309" style="mask-type:luminance" maskUnits="userSpaceOnUse" x="0" y="0" width="17" height="17">
<path id="Fill 45_2" fill-rule="evenodd" clip-rule="evenodd" d="M13.104 1.14568L16.7946 4.8375C17.0036 5.04636 17.0036 5.38533 16.7946 5.59418L6.1711 16.2212C6.08811 16.3042 5.9802 16.3577 5.86403 16.3732L1.60132 16.9455C1.57748 16.9488 1.55378 16.9504 1.53009 16.9504C1.38917 16.9504 1.25283 16.8945 1.1518 16.7935C1.0338 16.6756 0.977709 16.5094 0.999872 16.344L1.57182 12.0799C1.58756 11.9635 1.64091 11.8556 1.72375 11.7727L12.3474 1.14568C12.5481 0.944929 12.9033 0.944929 13.104 1.14568ZM2.15355 15.7916L5.54245 15.3365L15.6598 5.21592L12.7257 2.28078L2.60827 12.4017L2.15355 15.7916Z" fill="white"/>
</mask>
<g mask="url(#mask0_0_15309)">
</g>
</g>
</svg>
