<svg width="40" height="22" viewBox="0 0 40 22" fill="none" xmlns="http://www.w3.org/2000/svg">
<g id="TAPIcons / Interface actions / back / 16">
<path id="Path 2" d="M2.37373 21.5899C1.82428 22.1432 0.940826 22.1357 0.40048 21.573C-0.139866 21.0103 -0.132485 20.1056 0.416966 19.5523L19.3351 0.499881C19.8781 -0.0469428 20.7489 -0.0469428 21.2919 0.499881L39.583 18.9208C40.1325 19.4742 40.1399 20.3789 39.5995 20.9416C39.0592 21.5042 38.1757 21.5118 37.6263 20.9584L20.3135 3.52283L2.37373 21.5899Z" fill="#127045"/>
<mask id="mask0_1845_141754" style="mask-type:luminance" maskUnits="userSpaceOnUse" x="13" y="7" width="14" height="9">
<path id="Path 2_2" d="M13.8308 14.9251C13.6385 15.1187 13.3293 15.1161 13.1402 14.9192C12.951 14.7222 12.9536 14.4056 13.1459 14.2119L19.7673 7.54356C19.9573 7.35217 20.2621 7.35217 20.4522 7.54356L26.8541 13.9909C27.0464 14.1846 27.049 14.5012 26.8598 14.6982C26.6707 14.8951 26.3615 14.8977 26.1692 14.7041L20.1097 8.60159L13.8308 14.9251Z" fill="white"/>
</mask>
<g mask="url(#mask0_1845_141754)">
</g>
</g>
</svg>
