<svg width="25" height="24" viewBox="0 0 25 24" fill="none" xmlns="http://www.w3.org/2000/svg">
<g id="TAPIcons / Interface actions / back / 17">
<path id="Fill 25" fill-rule="evenodd" clip-rule="evenodd" d="M5.27233 1.78388V7.80575C6.8788 8.14409 8.08871 9.57229 8.08871 11.2782C8.08871 12.9841 6.8788 14.4121 5.27233 14.7504V22.1325C5.27233 22.5367 4.94477 22.8644 4.5407 22.8644C4.13662 22.8644 3.80906 22.5367 3.80906 22.1325V14.7504C2.20259 14.4121 0.992676 12.9841 0.992676 11.2782C0.992676 9.57229 2.20259 8.14409 3.80906 7.80575V1.78388C3.80906 1.37988 4.13662 1.052 4.5407 1.052C4.94477 1.052 5.27233 1.37988 5.27233 1.78388ZM21.9954 1.78388V15.8428C23.6019 16.1811 24.8118 17.6091 24.8118 19.3152C24.8118 21.2723 23.2202 22.8644 21.2638 22.8644C19.3074 22.8644 17.7158 21.2723 17.7158 19.3152C17.7158 17.6091 18.9257 16.1811 20.5322 15.8428V1.78388C20.5322 1.37988 20.8597 1.052 21.2638 1.052C21.6679 1.052 21.9954 1.37988 21.9954 1.78388ZM19.1791 19.3152C19.1791 20.4651 20.1143 21.4007 21.2638 21.4007C22.4133 21.4007 23.3486 20.4651 23.3486 19.3152C23.3486 18.1654 22.4133 17.2298 21.2638 17.2298C20.1143 17.2298 19.1791 18.1654 19.1791 19.3152ZM12.9023 6.68703C11.7528 6.68703 10.8175 5.75148 10.8175 4.6016C10.8175 3.45172 11.7528 2.51596 12.9023 2.51596C14.0518 2.51596 14.987 3.45172 14.987 4.6016C14.987 5.75148 14.0518 6.68703 12.9023 6.68703ZM9.35423 4.6016C9.35423 2.64456 10.9459 1.05221 12.9023 1.05221C14.8586 1.05221 16.4503 2.64456 16.4503 4.6016C16.4503 6.30749 15.2404 7.73549 13.6339 8.07403V22.1325C13.6339 22.5367 13.3063 22.8644 12.9023 22.8644C12.4982 22.8644 12.1706 22.5367 12.1706 22.1325V8.07403C10.5642 7.73549 9.35423 6.30749 9.35423 4.6016ZM4.54071 13.3634C3.3912 13.3634 2.45596 12.4281 2.45596 11.2782C2.45596 10.1287 3.39058 9.19359 4.53945 9.19276L4.54071 9.19297L4.54196 9.19276C5.69084 9.19359 6.62546 10.1287 6.62546 11.2782C6.62546 12.4281 5.69021 13.3634 4.54071 13.3634Z" fill="#127045"/>
<mask id="mask0_1830_142984" style="mask-type:luminance" maskUnits="userSpaceOnUse" x="0" y="1" width="25" height="22">
<path id="Fill 25_2" fill-rule="evenodd" clip-rule="evenodd" d="M5.27233 1.78388V7.80575C6.8788 8.14409 8.08871 9.57229 8.08871 11.2782C8.08871 12.9841 6.8788 14.4121 5.27233 14.7504V22.1325C5.27233 22.5367 4.94477 22.8644 4.5407 22.8644C4.13662 22.8644 3.80906 22.5367 3.80906 22.1325V14.7504C2.20259 14.4121 0.992676 12.9841 0.992676 11.2782C0.992676 9.57229 2.20259 8.14409 3.80906 7.80575V1.78388C3.80906 1.37988 4.13662 1.052 4.5407 1.052C4.94477 1.052 5.27233 1.37988 5.27233 1.78388ZM21.9954 1.78388V15.8428C23.6019 16.1811 24.8118 17.6091 24.8118 19.3152C24.8118 21.2723 23.2202 22.8644 21.2638 22.8644C19.3074 22.8644 17.7158 21.2723 17.7158 19.3152C17.7158 17.6091 18.9257 16.1811 20.5322 15.8428V1.78388C20.5322 1.37988 20.8597 1.052 21.2638 1.052C21.6679 1.052 21.9954 1.37988 21.9954 1.78388ZM19.1791 19.3152C19.1791 20.4651 20.1143 21.4007 21.2638 21.4007C22.4133 21.4007 23.3486 20.4651 23.3486 19.3152C23.3486 18.1654 22.4133 17.2298 21.2638 17.2298C20.1143 17.2298 19.1791 18.1654 19.1791 19.3152ZM12.9023 6.68703C11.7528 6.68703 10.8175 5.75148 10.8175 4.6016C10.8175 3.45172 11.7528 2.51596 12.9023 2.51596C14.0518 2.51596 14.987 3.45172 14.987 4.6016C14.987 5.75148 14.0518 6.68703 12.9023 6.68703ZM9.35423 4.6016C9.35423 2.64456 10.9459 1.05221 12.9023 1.05221C14.8586 1.05221 16.4503 2.64456 16.4503 4.6016C16.4503 6.30749 15.2404 7.73549 13.6339 8.07403V22.1325C13.6339 22.5367 13.3063 22.8644 12.9023 22.8644C12.4982 22.8644 12.1706 22.5367 12.1706 22.1325V8.07403C10.5642 7.73549 9.35423 6.30749 9.35423 4.6016ZM4.54071 13.3634C3.3912 13.3634 2.45596 12.4281 2.45596 11.2782C2.45596 10.1287 3.39058 9.19359 4.53945 9.19276L4.54071 9.19297L4.54196 9.19276C5.69084 9.19359 6.62546 10.1287 6.62546 11.2782C6.62546 12.4281 5.69021 13.3634 4.54071 13.3634Z" fill="white"/>
</mask>
<g mask="url(#mask0_1830_142984)">
</g>
</g>
</svg>
