<svg width="22" height="40" viewBox="0 0 22 40" fill="none" xmlns="http://www.w3.org/2000/svg">
<g id="TAPIcons / Interface actions / back / 16">
<path id="Path 2" d="M21.5899 37.6263C22.1432 38.1757 22.1357 39.0592 21.573 39.5995C21.0103 40.1399 20.1056 40.1325 19.5523 39.583L0.49988 20.6649C-0.0469437 20.1219 -0.0469437 19.2511 0.49988 18.7081L18.9208 0.416965C19.4742 -0.132488 20.3789 -0.139866 20.9416 0.400482C21.5042 0.940826 21.5118 1.82428 20.9584 2.37373L3.52283 19.6865L21.5899 37.6263Z" fill="white"/>
<mask id="mask0_1830_142977" style="mask-type:luminance" maskUnits="userSpaceOnUse" x="7" y="13" width="9" height="14">
<path id="Path 2_2" d="M14.9248 26.1692C15.1185 26.3615 15.1158 26.6707 14.9189 26.8598C14.722 27.049 14.4053 27.0464 14.2117 26.8541L7.54332 20.2327C7.35193 20.0427 7.35193 19.7379 7.54332 19.5478L13.9906 13.1459C14.1843 12.9536 14.501 12.951 14.6979 13.1402C14.8948 13.3293 14.8975 13.6385 14.7038 13.8308L8.60135 19.8903L14.9248 26.1692Z" fill="white"/>
</mask>
<g mask="url(#mask0_1830_142977)">
</g>
</g>
</svg>
